<svg width="47" height="47" viewBox="0 0 47 47" fill="none" xmlns="http://www.w3.org/2000/svg">
<g id="Group 51">
<path id="Vector" d="M23.6922 3.84668C28.9172 3.84668 29.5691 3.86591 31.6191 3.96206C33.6672 4.05822 35.0614 4.37937 36.2883 4.8563C37.5576 5.34476 38.6268 6.00629 39.696 7.0736C40.6739 8.03494 41.4306 9.19781 41.9134 10.4813C42.3884 11.7063 42.7114 13.1024 42.8076 15.1505C42.898 17.2005 42.923 17.8524 42.923 23.0774C42.923 28.3024 42.9037 28.9544 42.8076 31.0044C42.7114 33.0524 42.3884 34.4467 41.9134 35.6736C41.432 36.9578 40.6751 38.1209 39.696 39.0813C38.7344 40.0588 37.5716 40.8154 36.2883 41.2986C35.0633 41.7736 33.6672 42.0967 31.6191 42.1928C29.5691 42.2832 28.9172 42.3082 23.6922 42.3082C18.4672 42.3082 17.8153 42.289 15.7653 42.1928C13.7172 42.0967 12.323 41.7736 11.096 41.2986C9.81205 40.8168 8.64898 40.06 7.68835 39.0813C6.71028 38.1201 5.9536 36.9572 5.47104 35.6736C4.99412 34.4486 4.67296 33.0524 4.57681 31.0044C4.48643 28.9544 4.46143 28.3024 4.46143 23.0774C4.46143 17.8524 4.48066 17.2005 4.57681 15.1505C4.67296 13.1005 4.99412 11.7082 5.47104 10.4813C5.95226 9.19702 6.70913 8.03384 7.68835 7.0736C8.64925 6.0952 9.81225 5.33847 11.096 4.8563C12.323 4.37937 13.7153 4.05822 15.7653 3.96206C17.8153 3.87168 18.4672 3.84668 23.6922 3.84668ZM23.6922 13.4621C21.142 13.4621 18.6963 14.4751 16.8931 16.2783C15.0899 18.0816 14.0768 20.5273 14.0768 23.0774C14.0768 25.6276 15.0899 28.0733 16.8931 29.8766C18.6963 31.6798 21.142 32.6928 23.6922 32.6928C26.2424 32.6928 28.6881 31.6798 30.4913 29.8766C32.2945 28.0733 33.3076 25.6276 33.3076 23.0774C33.3076 20.5273 32.2945 18.0816 30.4913 16.2783C28.6881 14.4751 26.2424 13.4621 23.6922 13.4621ZM36.1922 12.9813C36.1922 12.3438 35.9389 11.7323 35.4881 11.2815C35.0373 10.8307 34.4259 10.5774 33.7883 10.5774C33.1508 10.5774 32.5394 10.8307 32.0886 11.2815C31.6378 11.7323 31.3845 12.3438 31.3845 12.9813C31.3845 13.6188 31.6378 14.2303 32.0886 14.6811C32.5394 15.1319 33.1508 15.3851 33.7883 15.3851C34.4259 15.3851 35.0373 15.1319 35.4881 14.6811C35.9389 14.2303 36.1922 13.6188 36.1922 12.9813ZM23.6922 17.3082C25.2223 17.3082 26.6897 17.916 27.7717 18.998C28.8536 20.0799 29.4614 21.5474 29.4614 23.0774C29.4614 24.6075 28.8536 26.075 27.7717 27.1569C26.6897 28.2389 25.2223 28.8467 23.6922 28.8467C22.1621 28.8467 20.6947 28.2389 19.6127 27.1569C18.5308 26.075 17.923 24.6075 17.923 23.0774C17.923 21.5474 18.5308 20.0799 19.6127 18.998C20.6947 17.916 22.1621 17.3082 23.6922 17.3082Z" fill="white"/>
</g>
</svg>
