<?xml version="1.0" encoding="UTF-8" standalone="no"?>
<!-- Created with Inkscape (http://www.inkscape.org/) -->

<svg
   width="95.15374mm"
   height="133.2094mm"
   viewBox="0 0 95.153739 133.2094"
   version="1.1"
   id="svg5"
   xml:space="preserve"
   inkscape:export-filename="bitmap.svg"
   inkscape:export-xdpi="96"
   inkscape:export-ydpi="96"
   sodipodi:docname="path203.svg"
   xmlns:inkscape="http://www.inkscape.org/namespaces/inkscape"
   xmlns:sodipodi="http://sodipodi.sourceforge.net/DTD/sodipodi-0.dtd"
   xmlns="http://www.w3.org/2000/svg"
   xmlns:svg="http://www.w3.org/2000/svg"><sodipodi:namedview
     id="namedview7"
     pagecolor="#505050"
     bordercolor="#ffffff"
     borderopacity="1"
     inkscape:showpageshadow="0"
     inkscape:pageopacity="0"
     inkscape:pagecheckerboard="1"
     inkscape:deskcolor="#505050"
     inkscape:document-units="mm"
     showgrid="false" /><defs
     id="defs2" /><g
     inkscape:label="Capa 1"
     inkscape:groupmode="layer"
     id="layer1"
     transform="translate(922.17119,436.11345)"><path
       style="fill:#000000;stroke-width:0.264583"
       d="m -879.60957,-303.19051 c -5.32871,-0.60717 -11.52983,-2.41569 -16.00729,-4.66842 -14.87807,-7.48557 -24.58722,-21.47977 -26.32068,-37.93706 -1.19455,-11.34097 2.20264,-25.13641 9.92682,-40.31122 5.49305,-10.79157 13.80678,-23.40614 23.30979,-35.36838 3.21579,-4.04799 9.94131,-11.85226 11.58847,-13.44724 1.11826,-1.08283 1.34732,-1.19063 2.52997,-1.19063 1.18297,0 1.41121,0.10751 2.52778,1.19063 1.59774,1.54988 8.0384,9.01755 11.40978,13.22917 6.70964,8.38184 14.28157,19.2861 19.01575,27.38437 10.05179,17.19457 15.068,32.76146 14.57913,45.24375 -0.48679,12.42943 -5.29339,23.53704 -13.91679,32.16044 -10.17502,10.17502 -24.6429,15.30978 -38.64273,13.71459 z m 10.05416,-12.7901 c 7.6348,-1.15951 14.10162,-4.43536 19.58966,-9.9234 5.51906,-5.51907 8.7723,-11.96714 9.9368,-19.69524 0.21706,-1.44052 0.35967,-3.33741 0.31691,-4.2153 l -0.0777,-1.59617 -2.35016,-1.39269 c -2.51341,-1.48943 -4.04525,-1.95067 -6.47839,-1.95067 -2.12995,0 -3.83497,0.57172 -6.62925,2.22291 -4.06821,2.40398 -7.72223,2.65786 -11.26512,0.78271 -5.77928,-3.05882 -5.2403,-2.87333 -8.34935,-2.87333 -2.78018,0 -2.85872,0.0171 -4.77927,1.03784 -5.20343,2.76566 -5.35456,2.82658 -7.39227,2.98022 -2.64048,0.19909 -4.77455,-0.37351 -7.49411,-2.01078 -4.73462,-2.8504 -8.58309,-2.88386 -13.06156,-0.11356 l -1.91823,1.18658 0.002,1.76714 c 0.005,6.0423 2.29322,13.20241 6.00926,18.80635 1.94392,2.93152 6.42991,7.41751 9.36142,9.36143 7.37295,4.88908 16.17154,6.90294 24.57984,5.62596 z m -17.53312,-45.0776 c 0.54817,-0.43969 7.56209,-7.38668 15.5865,-15.43776 15.32726,-15.37819 15.20066,-15.23166 14.78708,-17.11468 -0.0914,-0.41611 -0.52539,-1.10072 -0.96444,-1.52135 -1.1643,-1.11547 -2.89833,-1.08554 -4.34609,0.075 -0.5762,0.46189 -7.61306,7.42704 -15.63747,15.47812 -15.32726,15.37819 -15.20066,15.23167 -14.78708,17.11469 0.16411,0.74718 1.22181,1.93921 1.99254,2.2456 0.83673,0.33262 2.39018,-0.0545 3.36896,-0.83963 z m 27.84949,0.59178 c 6.92367,-2.05611 9.14009,-10.77299 4.01772,-15.80116 -5.158,-5.06315 -13.71204,-2.86133 -15.76699,4.05844 -2.11279,7.11453 4.63259,13.85615 11.74927,11.74272 z m -3.83408,-6.1682 c -1.1777,-0.51726 -1.85208,-1.59227 -1.85208,-2.95235 0,-1.11152 0.12342,-1.41993 0.86498,-2.16149 0.74448,-0.74448 1.04788,-0.86499 2.17773,-0.86499 1.12985,0 1.43325,0.12051 2.17772,0.86499 0.74448,0.74447 0.86499,1.04787 0.86499,2.17772 0,1.11463 -0.12352,1.43626 -0.81846,2.1312 -0.8736,0.87359 -2.42561,1.23942 -3.41488,0.80492 z m -19.44926,-13.94013 c 5.05302,-1.50058 7.94396,-6.75369 6.46238,-11.74272 -0.51268,-1.72638 -1.31787,-3.01499 -2.66166,-4.25971 -1.40056,-1.2973 -2.14868,-1.72338 -3.94065,-2.24431 -6.87656,-1.99907 -13.64501,4.76937 -11.64594,11.64593 0.52094,1.79197 0.94702,2.54009 2.24432,3.94065 2.48812,2.68617 6.08096,3.68785 9.54155,2.66016 z m -3.83407,-6.1682 c -1.1777,-0.51727 -1.85208,-1.59227 -1.85208,-2.95235 0,-1.11152 0.12342,-1.41993 0.86498,-2.1615 0.74448,-0.74447 1.04788,-0.86498 2.17773,-0.86498 1.12984,0 1.43325,0.12051 2.17772,0.86498 0.74447,0.74448 0.86499,1.04788 0.86499,2.17773 0,1.11463 -0.12352,1.43625 -0.81846,2.1312 -0.8736,0.87359 -2.42561,1.23942 -3.41488,0.80492 z"
       id="path400" /></g></svg>
