<svg width="47" height="47" viewBox="0 0 47 47" fill="none" xmlns="http://www.w3.org/2000/svg">
<g id="Group 53">
<path id="Vector" d="M43.4657 10.8768C41.9975 11.5262 40.4406 11.9527 38.8464 12.1422C40.5267 11.1373 41.7843 9.55569 42.3849 7.6922C40.808 8.63067 39.0791 9.28836 37.2772 9.64413C36.0668 8.34909 34.4625 7.49021 32.7136 7.20102C30.9648 6.91183 29.1694 7.20853 27.6066 8.045C26.0437 8.88146 24.801 10.2108 24.0716 11.8264C23.3423 13.442 23.1671 15.2533 23.5733 16.9787C20.3755 16.8185 17.2471 15.9874 14.3912 14.5396C11.5354 13.0918 9.0159 11.0596 6.99642 8.5749C6.2816 9.80269 5.90595 11.1984 5.90796 12.6191C5.90796 15.4076 7.32719 17.8711 9.48489 19.3134C8.20798 19.2732 6.95918 18.9283 5.84258 18.3076V18.4076C5.84296 20.2647 6.4856 22.0645 7.66152 23.5019C8.83744 24.9393 10.4743 25.9258 12.2945 26.2941C11.1091 26.6154 9.86625 26.6627 8.65989 26.4326C9.17309 28.0311 10.1734 29.4291 11.5206 30.4309C12.8679 31.4326 14.4947 31.988 16.1733 32.0191C14.505 33.3294 12.5948 34.2979 10.552 34.8695C8.50909 35.441 6.37359 35.6042 4.26758 35.3499C7.94392 37.7142 12.2235 38.9694 16.5945 38.9653C31.3887 38.9653 39.4791 26.7095 39.4791 16.0807C39.4791 15.7345 39.4695 15.3845 39.4541 15.0422C41.0289 13.9041 42.388 12.4942 43.4676 10.8787L43.4657 10.8768Z" fill="white"/>
</g>
</svg>
