<?xml version="1.0" encoding="UTF-8" standalone="no"?>
<!-- Created with Inkscape (http://www.inkscape.org/) -->

<svg
   width="32.5042mm"
   height="37.753811mm"
   viewBox="0 0 32.504199 37.753812"
   version="1.1"
   id="svg5"
   xml:space="preserve"
   inkscape:export-filename="bitmap.svg"
   inkscape:export-xdpi="96"
   inkscape:export-ydpi="96"
   sodipodi:docname="path177.svg"
   xmlns:inkscape="http://www.inkscape.org/namespaces/inkscape"
   xmlns:sodipodi="http://sodipodi.sourceforge.net/DTD/sodipodi-0.dtd"
   xmlns="http://www.w3.org/2000/svg"
   xmlns:svg="http://www.w3.org/2000/svg"><sodipodi:namedview
     id="namedview7"
     pagecolor="#505050"
     bordercolor="#ffffff"
     borderopacity="1"
     inkscape:showpageshadow="0"
     inkscape:pageopacity="0"
     inkscape:pagecheckerboard="1"
     inkscape:deskcolor="#505050"
     inkscape:document-units="mm"
     showgrid="false" /><defs
     id="defs2" /><g
     inkscape:label="Capa 1"
     inkscape:groupmode="layer"
     id="layer1"
     transform="translate(941.97595,-20.664932)"><g
       inkscape:label="Capa 1"
       id="layer1-1"
       transform="translate(-236.37773,221.02425)"><path
         style="fill:#282828;fill-opacity:1;stroke-width:0.0846667"
         d="m -702.19232,-162.72972 c -1.52386,-0.36903 -2.88004,-1.70413 -3.27626,-3.22534 -0.11352,-0.43582 -0.12964,-2.0204 -0.12964,-12.74105 0,-8.18303 0.0295,-12.40994 0.089,-12.74571 0.34281,-1.93545 1.52285,-3.90413 3.03984,-5.07143 0.76591,-0.58935 1.38003,-0.91235 2.9011,-1.52585 l 1.41559,-0.57095 0.25702,-0.45541 c 0.15377,-0.27248 0.41838,-0.57259 0.65874,-0.74716 0.80263,-0.5829 0.49075,-0.56236 8.15102,-0.5367 l 6.89804,0.0231 0.42333,0.20965 c 0.52225,0.25863 1.0692,0.79384 1.26516,1.23799 0.13521,0.30647 0.20908,0.3585 0.88055,0.62021 1.23575,0.48164 2.28695,0.99866 3.01382,1.4823 1.3164,0.87591 2.46723,2.34017 3.00303,3.82093 0.54863,1.51622 0.52288,0.76613 0.49697,14.47292 l -0.0235,12.446 -0.19612,0.48561 c -0.58177,1.44046 -1.86807,2.5511 -3.30055,2.84983 -0.69177,0.14426 -24.96533,0.11678 -25.56709,-0.029 z"
         id="path203"
         inkscape:export-filename="waterTank.svg"
         inkscape:export-xdpi="96"
         inkscape:export-ydpi="96" /><path
         style="fill:#ffffff;stroke-width:0.264583"
         d="m -934.37753,-152.10705 c -2.92487,-0.69475 -5.58065,-2.85651 -6.97479,-5.67737 -0.84839,-1.71659 -0.98434,-2.26378 -1.09684,-4.41449 l -0.12841,-2.45501 h 55.06592 55.06592 l -0.003,1.71979 c -0.008,4.61421 -2.25089,8.22494 -6.29934,10.14293 l -1.7673,0.83728 -46.43437,0.0414 c -26.4421,0.0236 -46.86203,-0.0602 -47.42764,-0.19453 z m -7.48543,-17.29735 -0.64943,-0.64943 v -32.5678 -32.5678 l 0.64943,-0.64943 0.64943,-0.64944 h 53.73447 53.73447 l 0.64943,0.64944 0.64943,0.64943 v 32.5678 32.5678 l -0.64943,0.64943 -0.64943,0.64943 h -53.73447 -53.73447 z m 67.49979,-9.31903 c 2.6554,-0.90311 5.49649,-4.95926 6.36108,-9.08153 0.91866,-4.3801 -0.30753,-8.96485 -3.35175,-12.53231 -1.44271,-1.69066 -1.62505,-2.5186 -0.79315,-3.60126 0.38385,-0.49957 0.74923,-0.65545 1.53633,-0.65545 0.84981,0 1.28004,0.21637 2.42934,1.22176 2.68364,2.34758 5.8003,3.48911 9.54184,3.49486 4.04975,0.006 7.4278,-1.29554 10.15046,-3.91159 3.18611,-3.06133 2.92349,-7.60106 -0.58225,-10.06499 -0.95896,-0.67399 -1.43472,-0.81277 -3.06903,-0.8953 -2.08013,-0.10504 -3.23625,0.27317 -5.16964,1.69118 -1.16549,0.85481 -1.7419,0.72201 -3.66471,-0.8443 -6.13012,-4.99356 -14.6116,-4.62923 -20.038,0.86075 -5.45919,5.52315 -5.78974,13.91001 -0.79016,20.04814 1.54228,1.89351 1.6696,2.44664 0.83041,3.60763 -1.42116,1.96611 -1.83137,2.99051 -1.85423,4.63054 -0.038,2.72654 1.66381,5.16685 4.24485,6.08688 1.38267,0.49287 2.65654,0.47626 4.21861,-0.055 z m -3.45953,-4.38501 c -1.03787,-0.89274 -0.97816,-1.86627 0.22142,-3.61015 0.53357,-0.77569 0.97014,-1.51604 0.97014,-1.64523 0,-0.12919 1.02005,-0.23489 2.26678,-0.23489 2.58458,0 2.51633,-0.13056 1.31392,2.51354 -1.35939,2.98932 -3.3292,4.21799 -4.77226,2.97673 z m 1.07634,-10.19897 c -0.083,-0.26145 -0.74585,-1.17903 -1.47304,-2.03907 -0.72719,-0.86004 -1.32216,-1.71769 -1.32216,-1.90589 0,-0.25566 0.63095,-0.34218 2.49553,-0.34218 2.42196,0 2.5106,0.0215 3.00715,0.72761 0.68784,0.97821 1.39573,2.38569 1.65561,3.29183 l 0.2131,0.74306 h -2.21266 c -1.8968,0 -2.23419,-0.0679 -2.36353,-0.47536 z m -4.37956,-9.51266 c 0.004,-1.21859 0.55051,-3.33325 1.17239,-4.53529 l 0.46421,-0.89728 1.56118,1.56118 c 1.51952,1.51952 1.55412,1.58578 1.2968,2.48303 -0.14541,0.50702 -0.26439,1.25006 -0.26439,1.6512 v 0.72935 h -2.11666 -2.11667 l 0.003,-0.99219 z m 20.70572,-1.40336 c -1.33509,-0.26351 -3.23498,-1.07608 -4.31633,-1.84607 -0.77706,-0.55331 -0.78211,-0.574 -0.78211,-3.19969 v -2.64277 l 0.82032,0.47797 c 0.45118,0.26289 2.36916,1.96015 4.26218,3.7717 2.87947,2.75552 3.36149,3.32531 2.94999,3.48713 -0.62519,0.24585 -1.51828,0.23116 -2.93405,-0.0483 z m 6.2851,-3.28645 c -0.78686,-0.79676 -1.37811,-1.49069 -1.31388,-1.54207 2.22016,-1.77573 3.5243,-2.00368 4.48389,-0.78375 0.7394,0.93999 0.54191,2.06645 -0.53415,3.04688 -0.43923,0.40018 -0.89007,0.72761 -1.00189,0.72761 -0.11181,0 -0.8471,-0.6519 -1.63397,-1.44867 z m -20.80781,-2.12108 c -0.78301,-0.82802 -1.42365,-1.59745 -1.42365,-1.70986 0,-0.44768 3.22936,-1.62455 4.88105,-1.77878 l 1.73353,-0.16188 v 2.12084 2.12084 l -1.36868,0.18156 c -0.75278,0.0999 -1.60042,0.30558 -1.88364,0.45716 -0.44013,0.23555 -0.72185,0.0568 -1.93861,-1.22988 z m -43.07952,28.99055 c 2.24236,-1.28619 4.4931,-4.70877 5.27364,-8.01938 1.07994,-4.58048 8e-4,-9.13956 -3.06857,-12.96409 -1.46099,-1.82043 -1.68918,-2.98486 -0.76587,-3.90817 0.90487,-0.90486 2.05909,-0.6911 3.70605,0.68634 1.76591,1.47693 4.57422,2.88669 6.57985,3.30306 2.3246,0.48258 6.15241,0.18024 8.38298,-0.66213 4.26081,-1.60909 6.99571,-4.65976 6.99571,-7.80345 0,-5.55729 -6.28411,-8.27519 -10.66978,-4.61472 -1.11829,0.93337 -2.16413,0.81726 -3.60847,-0.40062 -1.87949,-1.58482 -3.66603,-2.57829 -5.78594,-3.21751 -2.73179,-0.82372 -7.06251,-0.66339 -9.51826,0.35239 -5.80194,2.39986 -9.42278,7.71784 -9.40404,13.81185 0.0116,3.77867 1.0231,6.55657 3.52032,9.66818 1.61644,2.01411 1.67835,2.65919 0.40806,4.25136 -1.97459,2.47492 -1.95902,5.81183 0.038,8.14491 1.94955,2.27761 5.31924,2.86161 7.91631,1.37198 z m -4.60009,-4.07275 c -0.84244,-0.89674 -0.72889,-1.96607 0.35332,-3.32748 0.50791,-0.63894 0.92348,-1.32355 0.92348,-1.52135 0,-0.27528 0.53426,-0.35964 2.27764,-0.35964 h 2.27764 l -0.17335,0.69065 c -0.33488,1.33429 -1.31107,3.1007 -2.27155,4.11037 -1.18175,1.24228 -2.4586,1.39587 -3.38718,0.40745 z m 1.1624,-10.20094 c -0.21591,-0.41752 -0.93334,-1.39267 -1.59429,-2.167 -0.66095,-0.77432 -1.20173,-1.50428 -1.20173,-1.62211 0,-0.11784 1.1748,-0.21425 2.61067,-0.21425 h 2.61068 l 0.71747,1.08417 c 0.66033,0.99783 1.46951,2.89591 1.46951,3.44701 0,0.12722 -0.94944,0.23132 -2.10987,0.23132 -2.05532,0 -2.12002,-0.0196 -2.50244,-0.75914 z m -4.11894,-9.69851 c 0,-1.41802 0.77397,-4.18049 1.3259,-4.73241 0.18622,-0.18623 0.7235,0.18425 1.70429,1.17519 l 1.43233,1.44716 -0.15082,1.78594 -0.15081,1.78593 h -2.08045 -2.08044 z m 19.13316,-1.41083 c -0.75463,-0.26076 -1.85596,-0.79434 -2.4474,-1.18574 l -1.07534,-0.71163 v -2.65703 -2.65704 l 0.82281,0.47798 c 0.45256,0.26289 2.38732,1.99048 4.29948,3.8391 l 3.47667,3.36111 -1.85209,0.004 c -1.10278,0.002 -2.40718,-0.18813 -3.22413,-0.47043 z m 7.78337,-2.8962 -1.48158,-1.5072 0.69479,-0.52917 c 1.82415,-1.38931 2.67374,-1.51536 3.64791,-0.54119 0.80386,0.80385 0.8432,1.94329 0.0997,2.88844 -1.07231,1.36321 -1.34317,1.33477 -2.96087,-0.31088 z m -21.08392,-2.28304 c -1.38839,-1.41161 -1.4237,-1.48242 -0.92604,-1.85711 0.9076,-0.68335 3.6159,-1.46809 5.06668,-1.46809 h 1.40383 v 2.0839 2.08391 l -1.38906,0.15161 c -0.76398,0.0834 -1.68672,0.224 -2.05052,0.31248 -0.55105,0.13402 -0.90238,-0.0841 -2.10489,-1.3067 z m -20.60006,-30.63674 c 0.33674,-0.61478 1.33709,-1.83807 2.22302,-2.71841 2.49881,-2.48306 5.48248,-3.84702 9.31484,-4.25819 1.46985,-0.1577 1.70992,-0.26514 2.04641,-0.91585 0.85764,-1.65847 3.91888,-3.5248 7.45134,-4.5428 1.76972,-0.51001 2.69267,-0.59546 6.43184,-0.59546 3.73917,0 4.66212,0.0855 6.43184,0.59546 2.09372,0.60338 4.21586,1.55805 5.54056,2.49249 0.72008,0.50795 0.73512,0.50795 1.4552,0 1.3247,-0.93444 3.44684,-1.88911 5.54056,-2.49249 1.76972,-0.51001 2.69267,-0.59546 6.43184,-0.59546 3.73917,0 4.66212,0.0855 6.43184,0.59546 2.09372,0.60338 4.21586,1.55805 5.54056,2.49249 0.72008,0.50795 0.73512,0.50795 1.4552,0 1.3247,-0.93444 3.44684,-1.88911 5.54056,-2.49249 1.76972,-0.51001 2.69267,-0.59546 6.43184,-0.59546 3.73917,0 4.66212,0.0855 6.43184,0.59546 3.53594,1.019 6.21996,2.63452 7.31163,4.40087 0.49664,0.80358 0.69174,0.89758 2.19817,1.05914 3.81951,0.40963 6.80681,1.77658 9.30279,4.25683 0.88593,0.88034 1.88628,2.10363 2.22302,2.71841 l 0.61224,1.11779 h -53.47969 -53.47969 z m 16.88412,-17.92179 v -2.34735 l -3.10886,-0.0883 c -3.7325,-0.10602 -4.80148,-0.52912 -7.34252,-2.90614 -2.82418,-2.64189 -2.87283,-3.61842 -0.30801,-6.18324 2.73986,-2.73986 5.91875,-3.89455 8.1524,-2.96128 1.25447,0.52416 2.92652,2.05008 3.85251,3.51584 0.40637,0.64324 0.79838,1.16952 0.87115,1.16952 0.0728,0 0.46477,-0.52628 0.87114,-1.16952 0.92599,-1.46576 2.59804,-2.99168 3.85251,-3.51584 2.23365,-0.93327 5.41254,0.22142 8.1524,2.96128 2.56482,2.56482 2.51617,3.54135 -0.30801,6.18324 -2.54104,2.37702 -3.61002,2.80012 -7.34252,2.90614 l -3.10886,0.0883 v 1.68743 1.68744 l -1.03992,0.28002 c -0.57195,0.15401 -1.52445,0.45098 -2.11666,0.65992 l -1.07675,0.3799 z m 69.85,1.71097 -1.98438,-0.5851 -0.0777,-1.73687 -0.0777,-1.73688 -3.09726,-0.088 c -3.71961,-0.10573 -4.79198,-0.5308 -7.33094,-2.90587 -2.82418,-2.64189 -2.87283,-3.61842 -0.30801,-6.18324 2.73986,-2.73986 5.91875,-3.89455 8.1524,-2.96128 1.25447,0.52416 2.92652,2.05008 3.85251,3.51584 0.40637,0.64324 0.79838,1.16952 0.87115,1.16952 0.0728,0 0.46477,-0.52628 0.87114,-1.16952 0.92599,-1.46576 2.59804,-2.99168 3.85251,-3.51584 2.23365,-0.93327 5.41254,0.22142 8.1524,2.96128 2.56482,2.56482 2.51617,3.54135 -0.30801,6.18324 -2.53931,2.3754 -3.61111,2.80014 -7.33289,2.90591 l -3.09921,0.0881 -0.0758,2.32193 -0.0758,2.32192 z m -35.98334,-4.74194 v -3.54971 l -3.10885,-0.0883 c -3.7325,-0.10602 -4.80148,-0.52911 -7.34253,-2.90614 -2.82418,-2.64188 -2.87282,-3.61841 -0.308,-6.18323 2.73986,-2.73986 5.91874,-3.89456 8.15239,-2.96128 1.25448,0.52415 2.92652,2.05007 3.85252,3.51584 0.40637,0.64323 0.79838,1.16952 0.87114,1.16952 0.0728,0 0.46477,-0.52629 0.87114,-1.16952 0.926,-1.46577 2.59804,-2.99169 3.85252,-3.51584 2.23365,-0.93328 5.41253,0.22142 8.15239,2.96128 2.56482,2.56482 2.51618,3.54135 -0.308,6.18323 -2.54105,2.37703 -3.61003,2.80012 -7.34253,2.90614 l -3.10885,0.0883 v 3.54971 3.54972 h -2.11667 -2.11667 z"
         id="path177"
         inkscape:export-filename=".\path177.svg"
         inkscape:export-xdpi="96"
         inkscape:export-ydpi="96" /><path
         style="fill:#000000;stroke-width:0.264583"
         d="m -879.60957,-303.19051 c -5.32871,-0.60717 -11.52983,-2.41569 -16.00729,-4.66842 -14.87807,-7.48557 -24.58722,-21.47977 -26.32068,-37.93706 -1.19455,-11.34097 2.20264,-25.13641 9.92682,-40.31122 5.49305,-10.79157 13.80678,-23.40614 23.30979,-35.36838 3.21579,-4.04799 9.94131,-11.85226 11.58847,-13.44724 1.11826,-1.08283 1.34732,-1.19063 2.52997,-1.19063 1.18297,0 1.41121,0.10751 2.52778,1.19063 1.59774,1.54988 8.0384,9.01755 11.40978,13.22917 6.70964,8.38184 14.28157,19.2861 19.01575,27.38437 10.05179,17.19457 15.068,32.76146 14.57913,45.24375 -0.48679,12.42943 -5.29339,23.53704 -13.91679,32.16044 -10.17502,10.17502 -24.6429,15.30978 -38.64273,13.71459 z m 10.05416,-12.7901 c 7.6348,-1.15951 14.10162,-4.43536 19.58966,-9.9234 5.51906,-5.51907 8.7723,-11.96714 9.9368,-19.69524 0.21706,-1.44052 0.35967,-3.33741 0.31691,-4.2153 l -0.0777,-1.59617 -2.35016,-1.39269 c -2.51341,-1.48943 -4.04525,-1.95067 -6.47839,-1.95067 -2.12995,0 -3.83497,0.57172 -6.62925,2.22291 -4.06821,2.40398 -7.72223,2.65786 -11.26512,0.78271 -5.77928,-3.05882 -5.2403,-2.87333 -8.34935,-2.87333 -2.78018,0 -2.85872,0.0171 -4.77927,1.03784 -5.20343,2.76566 -5.35456,2.82658 -7.39227,2.98022 -2.64048,0.19909 -4.77455,-0.37351 -7.49411,-2.01078 -4.73462,-2.8504 -8.58309,-2.88386 -13.06156,-0.11356 l -1.91823,1.18658 0.002,1.76714 c 0.005,6.0423 2.29322,13.20241 6.00926,18.80635 1.94392,2.93152 6.42991,7.41751 9.36142,9.36143 7.37295,4.88908 16.17154,6.90294 24.57984,5.62596 z m -17.53312,-45.0776 c 0.54817,-0.43969 7.56209,-7.38668 15.5865,-15.43776 15.32726,-15.37819 15.20066,-15.23166 14.78708,-17.11468 -0.0914,-0.41611 -0.52539,-1.10072 -0.96444,-1.52135 -1.1643,-1.11547 -2.89833,-1.08554 -4.34609,0.075 -0.5762,0.46189 -7.61306,7.42704 -15.63747,15.47812 -15.32726,15.37819 -15.20066,15.23167 -14.78708,17.11469 0.16411,0.74718 1.22181,1.93921 1.99254,2.2456 0.83673,0.33262 2.39018,-0.0545 3.36896,-0.83963 z m 27.84949,0.59178 c 6.92367,-2.05611 9.14009,-10.77299 4.01772,-15.80116 -5.158,-5.06315 -13.71204,-2.86133 -15.76699,4.05844 -2.11279,7.11453 4.63259,13.85615 11.74927,11.74272 z m -3.83408,-6.1682 c -1.1777,-0.51726 -1.85208,-1.59227 -1.85208,-2.95235 0,-1.11152 0.12342,-1.41993 0.86498,-2.16149 0.74448,-0.74448 1.04788,-0.86499 2.17773,-0.86499 1.12985,0 1.43325,0.12051 2.17772,0.86499 0.74448,0.74447 0.86499,1.04787 0.86499,2.17772 0,1.11463 -0.12352,1.43626 -0.81846,2.1312 -0.8736,0.87359 -2.42561,1.23942 -3.41488,0.80492 z m -19.44926,-13.94013 c 5.05302,-1.50058 7.94396,-6.75369 6.46238,-11.74272 -0.51268,-1.72638 -1.31787,-3.01499 -2.66166,-4.25971 -1.40056,-1.2973 -2.14868,-1.72338 -3.94065,-2.24431 -6.87656,-1.99907 -13.64501,4.76937 -11.64594,11.64593 0.52094,1.79197 0.94702,2.54009 2.24432,3.94065 2.48812,2.68617 6.08096,3.68785 9.54155,2.66016 z m -3.83407,-6.1682 c -1.1777,-0.51727 -1.85208,-1.59227 -1.85208,-2.95235 0,-1.11152 0.12342,-1.41993 0.86498,-2.1615 0.74448,-0.74447 1.04788,-0.86498 2.17773,-0.86498 1.12984,0 1.43325,0.12051 2.17772,0.86498 0.74447,0.74448 0.86499,1.04788 0.86499,2.17773 0,1.11463 -0.12352,1.43625 -0.81846,2.1312 -0.8736,0.87359 -2.42561,1.23942 -3.41488,0.80492 z"
         id="path400"
         inkscape:export-filename=".\path400.svg"
         inkscape:export-xdpi="96"
         inkscape:export-ydpi="96" /></g></g></svg>
