<svg width="47" height="47" viewBox="0 0 47 47" fill="none" xmlns="http://www.w3.org/2000/svg">
<g id="Group 52">
<path id="Vector" d="M41.6598 12.4962C42.5387 15.9232 42.5387 23.077 42.5387 23.077C42.5387 23.077 42.5387 30.2308 41.6598 33.6578C41.1714 35.552 39.7425 37.0424 37.9329 37.5462C34.6464 38.4616 23.3079 38.4616 23.3079 38.4616C23.3079 38.4616 11.9752 38.4616 8.68292 37.5462C6.86561 37.0347 5.43869 35.5462 4.95599 33.6578C4.07715 30.2308 4.07715 23.077 4.07715 23.077C4.07715 23.077 4.07715 15.9232 4.95599 12.4962C5.44446 10.602 6.8733 9.11161 8.68292 8.60777C11.9752 7.69238 23.3079 7.69238 23.3079 7.69238C23.3079 7.69238 34.6464 7.69238 37.9329 8.60777C39.7502 9.11931 41.1771 10.6078 41.6598 12.4962ZM19.4618 29.8078L31.0002 23.077L19.4618 16.3462V29.8078Z" fill="white"/>
</g>
</svg>
